<mxfile host="www.draw.io" modified="2020-05-23T07:20:22.237Z" agent="5.0 (Macintosh; Intel Mac OS X 10_13_6) AppleWebKit/537.36 (KHTML, like Gecko) Chrome/80.0.3987.149 Safari/537.36" etag="NLm0aY0Yri_nXFyiorm6" version="13.1.3" type="github">
  <diagram id="WWdOuOSuD2TikaqlftFd" name="第 1 页">
    <mxGraphModel dx="1701" dy="826" grid="0" gridSize="10" guides="1" tooltips="1" connect="1" arrows="1" fold="1" page="0" pageScale="1" pageWidth="827" pageHeight="1169" math="0" shadow="0">
      <root>
        <mxCell id="0" />
        <mxCell id="1" parent="0" />
        <mxCell id="QC2kLoRTjOscIm8yNaXT-2" value="" style="rounded=0;whiteSpace=wrap;html=1;" vertex="1" parent="1">
          <mxGeometry x="-40" y="260" width="680" height="510" as="geometry" />
        </mxCell>
        <mxCell id="QC2kLoRTjOscIm8yNaXT-3" value="&lt;font style=&quot;font-size: 18px&quot;&gt;docker0&lt;/font&gt;" style="rounded=1;whiteSpace=wrap;html=1;" vertex="1" parent="1">
          <mxGeometry y="450" width="600" height="60" as="geometry" />
        </mxCell>
        <mxCell id="QC2kLoRTjOscIm8yNaXT-4" value="container1" style="rounded=0;whiteSpace=wrap;html=1;" vertex="1" parent="1">
          <mxGeometry x="10" y="570" width="200" height="110" as="geometry" />
        </mxCell>
        <mxCell id="QC2kLoRTjOscIm8yNaXT-6" value="eth0" style="rounded=0;whiteSpace=wrap;html=1;" vertex="1" parent="1">
          <mxGeometry x="75" y="570" width="70" height="25" as="geometry" />
        </mxCell>
        <mxCell id="QC2kLoRTjOscIm8yNaXT-7" value="container2" style="rounded=0;whiteSpace=wrap;html=1;" vertex="1" parent="1">
          <mxGeometry x="390" y="570" width="200" height="110" as="geometry" />
        </mxCell>
        <mxCell id="QC2kLoRTjOscIm8yNaXT-12" value="" style="rounded=0;orthogonalLoop=1;jettySize=auto;html=1;shape=link;" edge="1" parent="1" source="QC2kLoRTjOscIm8yNaXT-9" target="QC2kLoRTjOscIm8yNaXT-6">
          <mxGeometry relative="1" as="geometry" />
        </mxCell>
        <mxCell id="QC2kLoRTjOscIm8yNaXT-9" value="ethxx" style="rounded=0;whiteSpace=wrap;html=1;" vertex="1" parent="1">
          <mxGeometry x="75" y="485" width="70" height="25" as="geometry" />
        </mxCell>
        <mxCell id="QC2kLoRTjOscIm8yNaXT-10" value="eth0" style="rounded=0;whiteSpace=wrap;html=1;" vertex="1" parent="1">
          <mxGeometry x="455" y="570" width="70" height="25" as="geometry" />
        </mxCell>
        <mxCell id="QC2kLoRTjOscIm8yNaXT-11" value="ethyy" style="rounded=0;whiteSpace=wrap;html=1;" vertex="1" parent="1">
          <mxGeometry x="455" y="485" width="70" height="25" as="geometry" />
        </mxCell>
        <mxCell id="QC2kLoRTjOscIm8yNaXT-13" value="" style="rounded=0;orthogonalLoop=1;jettySize=auto;html=1;shape=link;" edge="1" parent="1">
          <mxGeometry relative="1" as="geometry">
            <mxPoint x="489.41" y="510" as="sourcePoint" />
            <mxPoint x="489.41" y="570" as="targetPoint" />
          </mxGeometry>
        </mxCell>
        <mxCell id="QC2kLoRTjOscIm8yNaXT-14" value="eth0" style="rounded=0;whiteSpace=wrap;html=1;" vertex="1" parent="1">
          <mxGeometry x="250" y="260" width="120" height="60" as="geometry" />
        </mxCell>
        <mxCell id="QC2kLoRTjOscIm8yNaXT-15" value="10.244.95.2" style="text;html=1;strokeColor=none;fillColor=none;align=center;verticalAlign=middle;whiteSpace=wrap;rounded=0;" vertex="1" parent="1">
          <mxGeometry x="35" y="640" width="40" height="20" as="geometry" />
        </mxCell>
        <mxCell id="QC2kLoRTjOscIm8yNaXT-16" value="10.244.95.3" style="text;html=1;strokeColor=none;fillColor=none;align=center;verticalAlign=middle;whiteSpace=wrap;rounded=0;" vertex="1" parent="1">
          <mxGeometry x="414" y="640" width="40" height="20" as="geometry" />
        </mxCell>
        <mxCell id="QC2kLoRTjOscIm8yNaXT-17" value="macA" style="text;html=1;strokeColor=none;fillColor=none;align=center;verticalAlign=middle;whiteSpace=wrap;rounded=0;" vertex="1" parent="1">
          <mxGeometry x="145" y="640" width="40" height="20" as="geometry" />
        </mxCell>
        <mxCell id="QC2kLoRTjOscIm8yNaXT-18" value="macB" style="text;html=1;strokeColor=none;fillColor=none;align=center;verticalAlign=middle;whiteSpace=wrap;rounded=0;" vertex="1" parent="1">
          <mxGeometry x="525" y="640" width="40" height="20" as="geometry" />
        </mxCell>
      </root>
    </mxGraphModel>
  </diagram>
</mxfile>
